<?xml version="1.0" encoding="utf-8"?>
<!-- Generator: Adobe Illustrator 16.0.4, SVG Export Plug-In . SVG Version: 6.00 Build 0)  -->
<!DOCTYPE svg PUBLIC "-//W3C//DTD SVG 1.1//EN" "http://www.w3.org/Graphics/SVG/1.1/DTD/svg11.dtd">
<svg version="1.1" id="Layer_1" xmlns="http://www.w3.org/2000/svg" xmlns:xlink="http://www.w3.org/1999/xlink" x="0px" y="0px"
	 width="110.612px" height="122.25px" viewBox="0 0 110.612 122.25" enable-background="new 0 0 110.612 122.25"
	 xml:space="preserve">
<g>
	<g>
		<rect x="10.434" fill="#010101" width="90" height="90"/>
	</g>
	<g>
		<g>
			<g>
				<path fill="#04A195" d="M13.806,4.273v81.642H25.89V57.062c-1.428-0.607-2.429-2.024-2.429-3.674
					c0-1.649,1.001-3.066,2.429-3.675v-25.4c-1.428-0.609-2.429-2.024-2.429-3.675c0-2.205,1.787-3.993,3.992-3.993
					c1.65,0,3.066,1.001,3.674,2.429h47.201c0.609-1.428,2.024-2.429,3.675-2.429c2.204,0,3.993,1.788,3.993,3.993
					c0,1.65-1.001,3.066-2.43,3.675v25.4c1.429,0.608,2.43,2.026,2.43,3.675c0,1.649-1.001,3.067-2.43,3.674v14.254H44.755
					c-0.609,1.43-2.024,2.432-3.675,2.432c-2.205,0-3.992-1.789-3.992-3.994c0-1.65,1.001-3.065,2.429-3.674V40.677
					c-1.428-0.608-2.429-2.023-2.429-3.675c0-2.204,1.787-3.993,3.992-3.993c1.651,0,3.066,1.003,3.675,2.43h19.946
					c0.608-1.427,2.024-2.43,3.674-2.43c2.205,0,3.994,1.789,3.994,3.993c0,1.652-1.001,3.067-2.431,3.675v9.036
					c1.43,0.608,2.431,2.026,2.431,3.675c0,2.205-1.789,3.993-3.994,3.993c-1.649,0-3.065-1.001-3.674-2.429H53.165v-3.127h11.537
					c0.403-0.947,1.164-1.709,2.111-2.112v-9.036c-0.947-0.403-1.708-1.164-2.111-2.112H44.755
					c-0.404,0.949-1.164,1.709-2.112,2.112v25.402c0.949,0.403,1.708,1.164,2.112,2.111H80.44V57.062
					c-1.427-0.607-2.43-2.024-2.43-3.674c0-1.649,1.002-3.066,2.43-3.675v-25.4c-0.948-0.404-1.708-1.165-2.112-2.112H31.127
					c-0.403,0.947-1.163,1.708-2.112,2.112v25.4c1.428,0.608,2.43,2.026,2.43,3.675c0,1.649-1.002,3.067-2.43,3.674v28.854h66.432
					V4.273H13.806z"/>
			</g>
		</g>
		<g>
			<path fill="#010101" d="M8.611,98.651H0v23.007h2.563v-9.038h5.588c4.602,0,7.789-2.531,7.789-7.1
				C15.94,100.853,12.785,98.651,8.611,98.651z M8.185,110.286H2.563v-9.302h5.949c3.155,0,4.864,1.676,4.864,4.635
				C13.377,108.676,11.701,110.286,8.185,110.286z"/>
			<path fill="#010101" d="M41.507,105.159c0-4.437-3.122-6.508-7.165-6.508h-9.104v23.007h2.563v-9.794h5.456l4.931,9.794h2.958
				l-5.062-9.992C39.37,110.976,41.507,108.741,41.507,105.159z M33.914,109.563h-6.113v-8.579h6.442c3.057,0,4.7,1.446,4.7,4.273
				C38.943,108.15,37.333,109.563,33.914,109.563z"/>
			<path fill="#010101" d="M76.962,112.423c-0.525,1.347-1.348,3.483-1.644,4.47c-0.263-0.953-1.084-3.09-1.643-4.47l-5.424-13.772
				h-2.859v23.007h2.465v-15.579v-2.465c0.23,0.888,0.854,2.629,1.348,3.813l6.048,14.823l6.146-14.823
				c0.493-1.216,1.15-2.925,1.38-3.813v2.465v15.579h2.466V98.651h-2.794L76.962,112.423z"/>
			<polygon fill="#010101" points="98.779,119.324 98.779,110.549 105.354,110.549 105.354,108.215 98.779,108.215 98.779,100.984 
				110.119,100.984 110.119,98.651 96.216,98.651 96.216,121.658 110.612,121.658 110.612,119.324 			"/>
			<path fill="#010101" d="M53.051,97.982c-1.757,0-3.182,1.425-3.182,3.184c0,1.269,0.747,2.355,1.82,2.866v17.626h2.564V104.11
				c1.162-0.475,1.982-1.612,1.982-2.944C56.236,99.407,54.81,97.982,53.051,97.982z"/>
		</g>
	</g>
</g>
<g>
</g>
<g>
</g>
<g>
</g>
<g>
</g>
<g>
</g>
<g>
</g>
</svg>
